<mxfile host="app.diagrams.net" modified="2022-12-02T08:33:51.696Z" agent="5.0 (Windows NT 10.0; Win64; x64) AppleWebKit/537.36 (KHTML, like Gecko) Chrome/107.0.0.0 Safari/537.36 Edg/107.0.1418.62" version="20.6.0" etag="EOAEVSOxxJzUZccz71Wy" type="github">
  <diagram id="9cV0gVxwf9-HcyPx193h" name="第 1 页">
    <mxGraphModel dx="1038" dy="579" grid="1" gridSize="10" guides="1" tooltips="1" connect="1" arrows="1" fold="1" page="1" pageScale="1" pageWidth="827" pageHeight="1169" math="0" shadow="0">
      <root>
        <mxCell id="0" />
        <mxCell id="1" parent="0" />
        <mxCell id="iTS8rO1hhQJ00tG32iRC-68" value="&amp;nbsp; &amp;nbsp;基础设施" style="rounded=1;whiteSpace=wrap;html=1;strokeColor=default;strokeWidth=1;fontSize=18;dashed=1;verticalAlign=middle;align=left;" vertex="1" parent="1">
          <mxGeometry x="120" y="280" width="720" height="70" as="geometry" />
        </mxCell>
        <mxCell id="iTS8rO1hhQJ00tG32iRC-69" value="&amp;nbsp; &amp;nbsp;BaaS" style="rounded=1;whiteSpace=wrap;html=1;strokeColor=default;strokeWidth=1;fontSize=18;dashed=1;verticalAlign=middle;align=left;" vertex="1" parent="1">
          <mxGeometry x="120" y="200" width="720" height="70" as="geometry" />
        </mxCell>
        <mxCell id="iTS8rO1hhQJ00tG32iRC-70" value="对象存储" style="rounded=1;whiteSpace=wrap;html=1;strokeColor=default;strokeWidth=1;fontSize=16;" vertex="1" parent="1">
          <mxGeometry x="240" y="210" width="100" height="50" as="geometry" />
        </mxCell>
        <mxCell id="iTS8rO1hhQJ00tG32iRC-71" value="消息服务" style="rounded=1;whiteSpace=wrap;html=1;strokeColor=default;strokeWidth=1;fontSize=16;" vertex="1" parent="1">
          <mxGeometry x="484" y="210" width="100" height="50" as="geometry" />
        </mxCell>
        <mxCell id="iTS8rO1hhQJ00tG32iRC-72" value="缓存服务" style="rounded=1;whiteSpace=wrap;html=1;strokeColor=default;strokeWidth=1;fontSize=16;" vertex="1" parent="1">
          <mxGeometry x="605" y="210" width="100" height="50" as="geometry" />
        </mxCell>
        <mxCell id="iTS8rO1hhQJ00tG32iRC-73" value="数据库" style="rounded=1;whiteSpace=wrap;html=1;strokeColor=default;strokeWidth=1;fontSize=16;" vertex="1" parent="1">
          <mxGeometry x="359" y="210" width="101" height="50" as="geometry" />
        </mxCell>
        <mxCell id="iTS8rO1hhQJ00tG32iRC-74" value="物理机" style="rounded=1;whiteSpace=wrap;html=1;strokeColor=default;strokeWidth=1;fontSize=16;" vertex="1" parent="1">
          <mxGeometry x="240" y="290" width="100" height="50" as="geometry" />
        </mxCell>
        <mxCell id="iTS8rO1hhQJ00tG32iRC-75" value="……" style="rounded=1;whiteSpace=wrap;html=1;strokeColor=default;strokeWidth=1;fontSize=16;" vertex="1" parent="1">
          <mxGeometry x="727" y="290" width="100" height="50" as="geometry" />
        </mxCell>
        <mxCell id="iTS8rO1hhQJ00tG32iRC-76" value="网络" style="rounded=1;whiteSpace=wrap;html=1;strokeColor=default;strokeWidth=1;fontSize=16;" vertex="1" parent="1">
          <mxGeometry x="605" y="290" width="100" height="50" as="geometry" />
        </mxCell>
        <mxCell id="iTS8rO1hhQJ00tG32iRC-77" value="存储" style="rounded=1;whiteSpace=wrap;html=1;strokeColor=default;strokeWidth=1;fontSize=16;" vertex="1" parent="1">
          <mxGeometry x="359" y="290" width="105" height="50" as="geometry" />
        </mxCell>
        <mxCell id="iTS8rO1hhQJ00tG32iRC-78" value="数据库" style="rounded=1;whiteSpace=wrap;html=1;strokeColor=default;strokeWidth=1;fontSize=16;" vertex="1" parent="1">
          <mxGeometry x="484" y="290" width="100" height="50" as="geometry" />
        </mxCell>
        <mxCell id="iTS8rO1hhQJ00tG32iRC-79" value="……" style="rounded=1;whiteSpace=wrap;html=1;strokeColor=default;strokeWidth=1;fontSize=16;" vertex="1" parent="1">
          <mxGeometry x="727" y="210" width="100" height="50" as="geometry" />
        </mxCell>
        <mxCell id="iTS8rO1hhQJ00tG32iRC-80" value="&amp;nbsp; &amp;nbsp; &amp;nbsp;数据湖" style="rounded=1;whiteSpace=wrap;html=1;fontSize=18;verticalAlign=middle;align=left;dashed=1;" vertex="1" parent="1">
          <mxGeometry x="120" y="40" width="720" height="70" as="geometry" />
        </mxCell>
        <mxCell id="iTS8rO1hhQJ00tG32iRC-81" value="Severless平台" style="rounded=1;whiteSpace=wrap;html=1;fontSize=18;dashed=1;align=left;" vertex="1" parent="1">
          <mxGeometry x="120" y="120" width="720" height="70" as="geometry" />
        </mxCell>
        <mxCell id="iTS8rO1hhQJ00tG32iRC-82" value="数据湖仓" style="rounded=1;whiteSpace=wrap;html=1;fontSize=16;" vertex="1" parent="1">
          <mxGeometry x="230" y="50" width="140" height="50" as="geometry" />
        </mxCell>
        <mxCell id="iTS8rO1hhQJ00tG32iRC-83" value="AI" style="rounded=1;whiteSpace=wrap;html=1;fontSize=16;" vertex="1" parent="1">
          <mxGeometry x="530" y="50" width="140" height="50" as="geometry" />
        </mxCell>
        <mxCell id="iTS8rO1hhQJ00tG32iRC-84" value="BI" style="rounded=1;whiteSpace=wrap;html=1;fontSize=16;" vertex="1" parent="1">
          <mxGeometry x="380" y="50" width="140" height="50" as="geometry" />
        </mxCell>
        <mxCell id="iTS8rO1hhQJ00tG32iRC-85" value="风险集市" style="rounded=1;whiteSpace=wrap;html=1;fontSize=16;" vertex="1" parent="1">
          <mxGeometry x="690" y="50" width="140" height="50" as="geometry" />
        </mxCell>
        <mxCell id="iTS8rO1hhQJ00tG32iRC-86" value="云函数" style="rounded=1;whiteSpace=wrap;html=1;strokeColor=default;strokeWidth=1;fontSize=16;" vertex="1" parent="1">
          <mxGeometry x="240" y="130" width="100" height="50" as="geometry" />
        </mxCell>
        <mxCell id="iTS8rO1hhQJ00tG32iRC-87" value="……" style="rounded=1;whiteSpace=wrap;html=1;strokeColor=default;strokeWidth=1;fontSize=16;" vertex="1" parent="1">
          <mxGeometry x="727" y="130" width="100" height="50" as="geometry" />
        </mxCell>
        <mxCell id="iTS8rO1hhQJ00tG32iRC-88" value="监控服务" style="rounded=1;whiteSpace=wrap;html=1;strokeColor=default;strokeWidth=1;fontSize=16;" vertex="1" parent="1">
          <mxGeometry x="605" y="130" width="100" height="50" as="geometry" />
        </mxCell>
        <mxCell id="iTS8rO1hhQJ00tG32iRC-89" value="事件服务" style="rounded=1;whiteSpace=wrap;html=1;strokeColor=default;strokeWidth=1;fontSize=16;" vertex="1" parent="1">
          <mxGeometry x="359" y="130" width="105" height="50" as="geometry" />
        </mxCell>
        <mxCell id="iTS8rO1hhQJ00tG32iRC-90" value="网关服务" style="rounded=1;whiteSpace=wrap;html=1;strokeColor=default;strokeWidth=1;fontSize=16;" vertex="1" parent="1">
          <mxGeometry x="484" y="130" width="100" height="50" as="geometry" />
        </mxCell>
      </root>
    </mxGraphModel>
  </diagram>
</mxfile>
